<?xml version="1.0" encoding="UTF-8"?>
<svg xmlns="http://www.w3.org/2000/svg" xmlns:xlink="http://www.w3.org/1999/xlink" width="512px" height="512px" viewBox="0 0 512 512" version="1.1">
<g id="surface1">
<path style=" stroke:none;fill-rule:evenodd;fill:rgb(87.843137%,13.72549%,30.588235%);fill-opacity:1;" d="M 296.726562 8.492188 C 293.226562 8.492188 289.976562 9.269531 286.972656 10.304688 C 293.351562 14.707031 296.851562 20.53125 298.605469 27.132812 C 298.730469 28.039062 298.980469 28.6875 299.105469 29.59375 C 299.230469 30.371094 299.355469 31.148438 299.355469 31.921875 C 299.855469 43.316406 296.476562 44.738281 294.101562 51.46875 C 290.476562 60.144531 291.476562 69.464844 295.851562 76.972656 C 296.226562 77.878906 296.726562 78.914062 297.351562 79.820312 C 292.601562 47.070312 318.988281 42.148438 323.863281 31.921875 C 324.238281 22.992188 317.109375 17.039062 311.484375 12.894531 C 306.105469 9.527344 301.230469 8.492188 296.726562 8.492188 Z M 336.492188 15.871094 C 335.992188 18.847656 336.367188 18.074219 336.242188 19.625 C 336.117188 20.660156 336.117188 21.957031 335.992188 22.992188 C 335.742188 24.027344 335.492188 25.0625 335.117188 26.097656 C 334.867188 27.132812 334.492188 28.167969 334.117188 29.207031 C 333.617188 30.242188 333.242188 31.148438 332.742188 32.183594 C 332.367188 32.699219 332.117188 33.21875 331.742188 33.734375 C 331.492188 34.125 331.242188 34.511719 330.992188 34.902344 C 330.367188 35.808594 329.742188 36.714844 329.117188 37.488281 C 328.363281 38.265625 327.738281 39.171875 326.863281 39.820312 C 326.863281 39.949219 326.863281 39.949219 326.863281 39.949219 C 326.113281 40.597656 325.363281 41.375 324.488281 42.019531 C 321.863281 44.09375 318.863281 45.644531 316.109375 47.585938 C 315.234375 48.234375 314.359375 48.753906 313.609375 49.527344 C 312.734375 50.175781 311.984375 50.824219 311.234375 51.601562 C 310.359375 52.375 309.734375 53.152344 308.984375 54.058594 C 308.359375 54.835938 307.609375 55.742188 307.105469 56.648438 C 306.480469 57.554688 305.855469 58.460938 305.355469 59.367188 C 304.855469 60.402344 304.480469 61.308594 303.980469 62.34375 C 303.605469 63.378906 303.230469 64.285156 302.980469 65.320312 C 302.605469 66.488281 302.355469 67.523438 302.105469 68.558594 C 301.980469 69.074219 301.980469 69.722656 301.855469 70.242188 C 301.730469 70.757812 301.730469 71.277344 301.605469 71.792969 C 301.605469 72.828125 301.480469 73.996094 301.480469 75.03125 C 301.480469 75.808594 301.480469 76.582031 301.605469 77.359375 C 301.605469 78.394531 301.730469 79.429688 301.980469 80.597656 C 302.105469 81.632812 302.355469 82.667969 302.605469 83.703125 C 302.980469 84.738281 303.230469 85.773438 303.605469 86.808594 C 303.855469 87.457031 304.230469 88.105469 304.480469 88.621094 L 275.722656 77.101562 C 270.84375 75.675781 266.09375 74.382812 261.214844 73.21875 C 258.589844 72.570312 255.964844 71.921875 253.335938 71.277344 C 245.835938 69.722656 238.207031 68.558594 230.578125 67.78125 C 230.328125 67.78125 230.203125 67.652344 229.953125 67.652344 C 222.449219 66.875 215.074219 66.484375 207.570312 66.484375 C 202.070312 66.484375 196.566406 66.746094 191.191406 67.132812 C 183.5625 67.652344 175.933594 68.6875 168.304688 69.980469 C 166.429688 70.238281 164.554688 70.628906 162.679688 71.015625 C 158.800781 71.792969 155.050781 72.699219 151.425781 73.605469 C 149.550781 74.125 147.671875 74.640625 145.796875 75.160156 C 143.921875 75.9375 142.171875 76.84375 140.421875 77.617188 C 139.046875 78.265625 137.667969 78.914062 136.292969 79.558594 C 136.042969 79.691406 135.792969 79.691406 135.667969 79.820312 C 134.417969 80.464844 133.292969 80.984375 132.167969 81.632812 C 131.792969 81.761719 131.542969 81.890625 131.292969 82.019531 C 129.917969 82.667969 128.542969 83.445312 127.414062 84.089844 C 126.539062 84.480469 125.664062 84.996094 124.914062 85.386719 C 124.539062 85.644531 124.039062 85.902344 123.789062 86.03125 C 122.664062 86.679688 121.539062 87.328125 120.539062 87.972656 C 119.414062 88.621094 118.414062 89.269531 117.535156 89.917969 C 116.660156 90.5625 115.785156 91.082031 115.035156 91.726562 C 114.910156 91.859375 114.785156 91.859375 114.660156 91.988281 C 113.910156 92.503906 113.035156 93.152344 112.285156 93.800781 C 112.285156 93.800781 112.160156 93.929688 112.035156 94.058594 C 111.410156 94.574219 110.785156 95.09375 110.160156 95.613281 C 109.910156 95.742188 109.660156 96 109.410156 96.128906 C 108.785156 96.648438 108.160156 97.292969 107.535156 97.8125 C 107.410156 98.070312 107.160156 98.199219 107.035156 98.332031 C 106.28125 99.105469 105.53125 99.753906 104.78125 100.53125 C 104.65625 100.53125 104.65625 100.660156 104.53125 100.789062 C 103.78125 101.4375 103.03125 102.214844 102.28125 102.988281 C 102.15625 103.121094 102.15625 103.25 102.03125 103.25 C 101.40625 103.894531 100.78125 104.542969 100.15625 105.320312 C 99.90625 105.578125 99.53125 105.839844 99.28125 106.097656 C 98.65625 106.875 97.90625 107.648438 97.15625 108.425781 C 97.03125 108.683594 96.78125 108.816406 96.65625 109.074219 C 95.652344 110.109375 94.777344 111.144531 93.777344 112.179688 C 93.652344 112.308594 93.527344 112.4375 93.402344 112.570312 C 91.402344 114.769531 89.277344 116.96875 87.027344 118.910156 C 84.773438 120.984375 82.398438 122.925781 80.023438 124.609375 C 77.523438 126.421875 75.148438 127.972656 72.519531 129.527344 C 70.019531 130.949219 67.394531 132.246094 64.644531 133.410156 C 62.015625 134.574219 59.265625 135.609375 56.515625 136.515625 C 51.261719 137.683594 45.886719 139.882812 41.257812 140.269531 C 40.257812 140.269531 39.132812 140.53125 38.132812 140.660156 C 37.007812 140.917969 36.007812 141.175781 35.007812 141.4375 C 34.007812 141.824219 33.003906 142.210938 32.003906 142.601562 C 31.003906 142.988281 30.003906 143.507812 29.003906 144.023438 C 28.128906 144.671875 27.128906 145.191406 26.253906 145.835938 C 25.378906 146.484375 24.503906 147.261719 23.753906 148.039062 C 22.878906 148.683594 22 149.589844 21.25 150.367188 C 20.5 151.273438 19.75 152.050781 19.125 152.957031 C 18.5 153.992188 17.75 154.898438 17.25 155.933594 C 16.625 156.839844 16 157.875 15.5 158.910156 C 15 160.078125 14.5 161.113281 14.125 162.277344 C 13.75 163.3125 13.375 164.476562 13 165.644531 C 12.75 166.679688 12.496094 167.714844 12.375 168.75 C 12.375 168.878906 12.246094 169.007812 12.246094 169.136719 C 12 170.304688 12 171.855469 11.871094 172.632812 C 11.746094 173.539062 11.621094 174.316406 11.621094 175.222656 C 11.621094 175.738281 11.621094 176.386719 11.75 176.90625 C 11.875 177.8125 12 178.585938 12.25 179.363281 C 12.5 180.140625 12.75 180.917969 13.125 181.695312 C 13.125 181.824219 13.125 181.824219 13.125 181.824219 C 13.5 182.601562 14 183.378906 14.5 184.152344 C 15 184.929688 15.5 185.707031 16.125 186.484375 C 16.75 187.132812 17.5 187.90625 18.25 188.554688 C 19 189.332031 19.75 189.980469 20.625 190.625 C 23.628906 193.34375 24.378906 194.25 28.253906 196.320312 C 28.878906 196.710938 29.503906 196.96875 30.253906 197.359375 C 30.378906 197.359375 30.503906 197.488281 30.628906 197.488281 C 30.628906 197.746094 30.628906 197.875 30.753906 198.132812 C 30.882812 199.171875 31.128906 200.207031 31.382812 201.242188 C 31.628906 202.40625 32.007812 203.441406 32.382812 204.347656 C 32.757812 205.125 33.007812 205.902344 33.382812 206.679688 C 33.507812 206.9375 33.632812 207.195312 33.757812 207.324219 C 34.257812 208.359375 34.757812 209.265625 35.257812 210.171875 C 35.882812 211.078125 36.507812 211.984375 37.132812 212.890625 C 37.757812 213.667969 38.507812 214.574219 39.257812 215.351562 C 40.007812 216.128906 40.757812 216.773438 41.632812 217.550781 C 41.632812 217.550781 41.761719 217.679688 41.882812 217.679688 C 42.636719 218.328125 43.386719 218.976562 44.136719 219.492188 C 45.011719 220.140625 45.886719 220.660156 46.886719 221.175781 C 47.761719 221.695312 48.761719 222.210938 49.761719 222.601562 C 50.511719 222.988281 51.386719 223.246094 52.261719 223.507812 C 52.390625 223.636719 52.511719 223.636719 52.765625 223.765625 C 53.265625 223.894531 53.890625 224.023438 54.390625 224.152344 C 54.015625 231.144531 53.890625 237.746094 54.890625 240.074219 C 56.015625 242.664062 61.515625 234.769531 67.019531 225.707031 C 66.269531 234.640625 65.769531 245.125 67.019531 248.230469 C 68.394531 251.46875 75.898438 241.371094 82.398438 230.238281 C 171.058594 209.007812 251.964844 272.4375 260.464844 362.015625 C 258.839844 348.035156 242.210938 340.269531 234.582031 342.210938 C 230.832031 351.789062 224.453125 364.085938 214.199219 371.722656 C 215.074219 363.179688 214.699219 354.378906 212.949219 345.835938 C 210.199219 357.742188 204.820312 368.875 197.441406 378.457031 C 185.5625 379.363281 173.683594 373.40625 167.429688 364.476562 C 166.929688 364.085938 166.804688 363.308594 166.429688 362.792969 C 166.054688 361.886719 165.679688 360.980469 165.429688 360.074219 C 165.054688 359.167969 164.804688 358.261719 164.679688 357.355469 C 164.554688 356.449219 164.554688 355.542969 164.554688 354.507812 C 164.554688 353.859375 164.554688 353.214844 164.554688 352.566406 C 164.679688 351.660156 164.929688 350.753906 165.179688 349.847656 C 165.429688 348.941406 165.679688 348.035156 166.054688 347.128906 C 166.554688 346.222656 166.929688 345.316406 167.554688 344.410156 C 169.683594 338.195312 169.683594 333.148438 165.804688 330.171875 C 165.054688 329.652344 164.304688 329.265625 163.429688 328.875 C 162.929688 328.746094 162.304688 328.488281 161.804688 328.359375 C 161.429688 328.230469 161.179688 328.101562 160.804688 327.96875 C 159.929688 327.710938 159.054688 327.453125 158.179688 327.324219 C 157.300781 327.066406 156.425781 326.933594 155.550781 326.933594 C 154.675781 326.804688 153.675781 326.675781 152.800781 326.675781 C 152.175781 326.675781 151.550781 326.804688 150.925781 326.804688 C 149.925781 326.804688 149.050781 326.9375 148.175781 327.195312 C 147.300781 327.324219 146.421875 327.453125 145.546875 327.710938 C 144.671875 327.972656 143.796875 328.230469 142.921875 328.617188 C 142.046875 329.007812 141.296875 329.394531 140.421875 329.785156 C 139.671875 330.171875 138.921875 330.6875 138.046875 331.078125 C 108.910156 350.753906 126.292969 396.835938 146.171875 410.171875 C 138.671875 411.59375 131.042969 413.277344 128.917969 414.960938 C 128.792969 415.089844 128.667969 415.21875 128.667969 415.21875 C 134.042969 418.585938 139.671875 421.433594 145.546875 423.890625 C 153.550781 426.609375 162.054688 429.070312 165.804688 430.105469 C 165.804688 430.105469 165.804688 430.234375 165.804688 430.234375 C 176.183594 432.433594 186.6875 433.210938 197.316406 432.566406 C 252.714844 428.550781 298.105469 384.929688 306.359375 327.453125 C 306.609375 328.617188 306.859375 329.652344 307.109375 330.820312 C 307.484375 333.148438 307.984375 335.609375 308.234375 338.066406 C 308.234375 338.066406 308.234375 338.066406 308.234375 338.199219 C 308.484375 339.363281 308.609375 340.527344 308.734375 341.5625 C 308.734375 341.820312 308.734375 341.953125 308.734375 342.082031 C 308.859375 343.246094 308.984375 344.410156 308.984375 345.445312 C 309.109375 346.871094 309.234375 348.292969 309.234375 349.71875 C 309.234375 350.367188 309.234375 351.011719 309.234375 351.789062 C 309.234375 352.4375 309.359375 353.214844 309.359375 353.859375 C 309.359375 354.636719 309.234375 355.414062 309.234375 356.191406 C 309.234375 356.839844 309.234375 357.484375 309.234375 358.003906 C 309.234375 358.910156 309.109375 359.6875 309.109375 360.59375 C 309.109375 361.109375 309.109375 361.628906 308.984375 362.273438 C 308.984375 363.179688 308.859375 364.085938 308.859375 365.121094 C 308.734375 365.511719 308.734375 365.898438 308.734375 366.289062 C 308.609375 367.324219 308.484375 368.230469 308.359375 369.265625 C 308.359375 369.652344 308.359375 370.042969 308.234375 370.429688 C 308.105469 371.726562 307.859375 372.890625 307.730469 374.183594 C 307.730469 374.183594 307.730469 374.3125 307.730469 374.3125 L 307.730469 374.445312 C 307.484375 375.609375 307.230469 376.902344 306.980469 378.066406 C 306.980469 378.199219 306.980469 378.328125 306.980469 378.457031 C 306.730469 379.621094 306.480469 380.785156 306.230469 381.953125 C 306.230469 382.082031 306.105469 382.339844 306.105469 382.46875 C 305.855469 383.636719 305.605469 384.800781 305.230469 385.964844 C 305.230469 386.09375 305.230469 386.222656 305.230469 386.351562 C 304.855469 387.648438 304.480469 388.8125 304.230469 389.976562 C 304.105469 390.105469 304.105469 390.238281 304.105469 390.238281 C 303.730469 391.53125 303.355469 392.824219 302.980469 394.121094 C 302.480469 395.414062 302.105469 396.578125 301.605469 397.875 C 301.105469 399.167969 300.730469 400.460938 300.230469 401.628906 C 299.730469 402.921875 299.230469 404.085938 298.730469 405.382812 C 298.730469 405.382812 298.601562 405.382812 298.601562 405.382812 C 298.101562 406.546875 297.601562 407.839844 296.976562 409.007812 C 296.851562 409.394531 296.726562 409.652344 296.601562 409.914062 C 296.476562 410.042969 296.476562 410.171875 296.351562 410.300781 C 288.222656 427.257812 276.21875 442.144531 261.214844 453.796875 C 260.214844 454.441406 259.214844 455.21875 258.214844 455.996094 C 257.964844 456.253906 257.589844 456.382812 257.339844 456.644531 C 256.460938 457.289062 255.585938 457.9375 254.585938 458.585938 L 254.960938 459.363281 L 255.085938 459.363281 C 256.839844 459.101562 258.589844 458.84375 260.339844 458.585938 L 260.464844 458.585938 C 263.714844 458.066406 266.96875 457.417969 270.21875 456.773438 C 271.09375 456.644531 272.09375 456.382812 272.96875 456.125 C 273.59375 455.996094 274.09375 455.867188 274.71875 455.738281 C 275.59375 455.605469 276.46875 455.347656 277.347656 455.21875 C 278.097656 454.960938 278.847656 454.832031 279.597656 454.570312 C 292.101562 451.464844 304.230469 447.191406 315.859375 442.144531 C 295.976562 470.234375 269.34375 492.886719 238.207031 507.773438 C 252.585938 506.738281 266.96875 504.28125 280.847656 500.136719 C 331.242188 484.734375 373.632812 449.652344 399.015625 402.402344 C 393.890625 432.308594 382.386719 460.785156 365.378906 485.640625 C 377.507812 477.355469 388.636719 467.773438 398.765625 456.902344 C 426.777344 426.609375 445.160156 388.164062 451.410156 346.871094 C 455.664062 367.324219 456.914062 388.425781 455.035156 409.265625 C 545.320312 278.910156 462.539062 143.769531 427.902344 108.167969 C 427.777344 107.910156 427.652344 107.78125 427.652344 107.523438 C 427.527344 107.652344 427.527344 107.652344 427.527344 107.78125 C 427.527344 107.652344 427.527344 107.652344 427.402344 107.523438 C 427.402344 109.074219 427.277344 110.628906 427.152344 112.183594 C 426.777344 115.160156 426.402344 118.007812 425.902344 120.855469 C 425.277344 123.703125 424.527344 126.550781 423.773438 129.398438 C 422.898438 132.117188 421.898438 134.964844 420.773438 137.683594 C 419.648438 140.273438 418.398438 142.992188 417.023438 145.578125 C 415.648438 148.039062 414.148438 150.628906 412.519531 152.957031 C 410.894531 155.417969 409.144531 157.746094 407.394531 159.949219 C 405.519531 162.277344 403.519531 164.351562 401.515625 166.421875 C 400.265625 167.585938 399.140625 168.621094 397.890625 169.65625 C 396.890625 170.5625 396.015625 171.339844 395.015625 172.246094 C 392.765625 174.058594 390.511719 175.742188 388.011719 177.292969 C 385.636719 178.847656 383.136719 180.402344 380.632812 181.695312 C 378.007812 182.992188 375.382812 184.15625 372.757812 185.320312 C 370.128906 186.355469 367.378906 187.261719 364.628906 188.039062 C 361.878906 188.816406 359 189.460938 356.25 189.980469 C 353.375 190.5 350.496094 190.757812 347.746094 191.015625 C 345.746094 191.144531 343.746094 191.273438 341.746094 191.273438 C 338.867188 191.273438 335.992188 191.015625 333.242188 190.757812 C 330.367188 190.5 327.488281 190.109375 324.738281 189.460938 C 321.863281 188.945312 319.109375 188.167969 316.359375 187.261719 L 316.234375 187.261719 C 318.984375 187.003906 321.738281 186.742188 324.488281 186.226562 C 327.363281 185.707031 330.113281 185.0625 332.867188 184.285156 C 335.617188 183.507812 338.367188 182.601562 340.996094 181.566406 C 343.746094 180.53125 346.371094 179.234375 348.871094 177.941406 C 351.5 176.648438 353.875 175.222656 356.375 173.667969 C 358.75 171.988281 361.125 170.304688 363.378906 168.492188 C 365.628906 166.679688 367.753906 164.738281 369.753906 162.667969 C 371.878906 160.726562 373.757812 158.523438 375.632812 156.324219 C 377.507812 153.992188 379.257812 151.664062 380.882812 149.332031 C 381.132812 148.945312 381.382812 148.425781 381.632812 148.039062 C 382.886719 145.96875 384.136719 143.898438 385.261719 141.824219 C 386.636719 139.238281 387.886719 136.648438 389.011719 133.929688 C 390.136719 131.210938 391.136719 128.492188 392.011719 125.644531 C 392.886719 122.925781 393.515625 120.078125 394.140625 117.230469 C 394.640625 114.253906 395.140625 111.40625 395.390625 108.558594 C 395.640625 105.582031 395.890625 102.601562 395.890625 99.753906 C 395.890625 97.683594 395.765625 95.613281 395.640625 93.542969 C 395.390625 90.5625 395.015625 87.714844 394.640625 84.867188 C 394.140625 81.890625 393.515625 79.042969 392.765625 76.195312 C 391.886719 73.476562 391.011719 70.628906 390.011719 67.910156 C 389.011719 65.191406 387.761719 62.472656 386.511719 59.886719 C 385.136719 57.296875 383.761719 54.707031 382.261719 52.246094 C 380.632812 49.789062 379.007812 47.457031 377.257812 45.128906 C 375.382812 42.925781 373.507812 40.726562 371.507812 38.527344 C 370.503906 37.492188 369.378906 36.324219 368.253906 35.289062 C 362.628906 30.757812 356.75 26.488281 350.875 22.605469 C 350 22.085938 349.246094 21.699219 348.371094 21.308594 C 344.246094 18.589844 340.371094 17.167969 336.492188 15.871094 Z M 336.492188 15.871094 "/>
</g>
</svg>
